<svg width="33" height="35" viewBox="0 0 33 35" fill="none" xmlns="http://www.w3.org/2000/svg">
<path d="M5.35 12.45L4.9 18H12.325C12.675 18 12.95 18.0917 13.15 18.275C13.35 18.4583 13.45 18.7 13.45 19C13.45 19.35 13.3417 19.625 13.125 19.825C12.9083 20.0083 12.6 20.1 12.2 20.1H4.75L4.275 25.925H12.2C12.5667 25.925 12.85 26.0167 13.05 26.2C13.25 26.3833 13.35 26.625 13.35 26.925C13.35 27.2583 13.2417 27.525 13.025 27.725C12.8083 27.9083 12.4917 28 12.075 28H2.85C2.43333 28 2.125 27.8917 1.925 27.675C1.725 27.4583 1.64167 27.1417 1.675 26.725L2.875 11.6C2.89167 11.2 3.01667 10.9 3.25 10.7C3.48333 10.4833 3.8 10.375 4.2 10.375H13.425C13.775 10.375 14.05 10.4667 14.25 10.65C14.45 10.8333 14.55 11.075 14.55 11.375C14.55 12.0917 14.1333 12.45 13.3 12.45H5.35Z" fill="#229E56"/>
<path d="M23.7 10.375C24.0333 10.375 24.2917 10.475 24.475 10.675C24.6583 10.8583 24.75 11.1 24.75 11.4C24.75 11.7167 24.625 12.0417 24.375 12.375L13.875 25.9H22.7C23.0667 25.9 23.35 25.9917 23.55 26.175C23.75 26.3417 23.85 26.5833 23.85 26.9C23.85 27.6333 23.425 28 22.575 28H11.6C11.2833 28 11.025 27.9083 10.825 27.725C10.6417 27.525 10.55 27.275 10.55 26.975C10.55 26.6417 10.675 26.3167 10.925 26L21.425 12.475H12.9C12.5333 12.475 12.25 12.3917 12.05 12.225C11.8667 12.0417 11.775 11.8 11.775 11.5C11.775 10.75 12.1917 10.375 13.025 10.375H23.7Z" fill="black"/>
</svg>
